<svg id="Capa_1" data-name="Capa 1" xmlns="http://www.w3.org/2000/svg" viewBox="0 0 394.3 76.5"><title>flaticon_positive</title><path d="M156.6,69.4H145.3V7.1h11.3Z" style="fill:#0e2a47"/><path d="M206.2,69.4h-11V64.8a15.4,15.4,0,0,1-12.6,5.7c-11.6,0-20.3-9.5-20.3-22.1s8.8-22.1,20.3-22.1a15.4,15.4,0,0,1,12.6,5.8V27.5h11Zm-32.4-21c0,6.4,4.2,11.6,10.8,11.6s10.8-4.9,10.8-11.6-4.4-11.6-10.8-11.6S173.9,42,173.9,48.4Z" style="fill:#0e2a47"/><path d="M262.5,13.7a7.2,7.2,0,0,1-14.4,0,7.2,7.2,0,1,1,14.4,0ZM261,69.4H249.6v-42H261Z" style="fill:#0e2a47"/><path id="_Trazado_" data-name="&lt;Trazado&gt;" d="M139.6,17.8a16.6,16.6,0,0,0-8-1.4c-3.2.4-4.9,2-4.9,5.9v5.1h13V37.5h-13v32H115.4v-32h-7.8v-10h7.8V22.2c0-9.9,5.2-16.3,15-16.3a23.4,23.4,0,0,1,9.3,1.8Z" style="fill:#0e2a47"/><path d="M235.1,60c-3.5,0-6.3-1.9-6.3-7.1V37.5H244v-10H228.8V15H217.5V27.5h-5.7v10h5.7V53.7c0,10.9,5.3,16.8,15.7,16.8A22.9,22.9,0,0,0,244,68l-4.3-9.1A12.3,12.3,0,0,1,235.1,60Z" style="fill:#0e2a47"/><path d="M348.9,48.4c0,12.6-9.7,22.1-22.7,22.1s-22.7-9.4-22.7-22.1,9.6-22.1,22.7-22.1S348.9,35.8,348.9,48.4Zm-33.9,0c0,6.8,4.8,11.6,11.1,11.6s11.2-4.8,11.2-11.6-4.8-11.6-11.2-11.6S315.1,41.6,315.1,48.4Z" style="fill:#0e2a47"/><path d="M394.3,42.7V69.4H382.9V46.3c0-6.1-3-9.4-8.2-9.4s-8.9,3.2-8.9,9.5v23H354.6v-42h11v4.9c3-4.5,7.6-6.1,12.3-6.1C387.5,26.3,394.3,33,394.3,42.7Z" style="fill:#0e2a47"/><path d="M298,55.7h0a12.4,12.4,0,0,1-8.2,4.2h-.9l-1.8-.2a10,10,0,0,1-7.4-5.6,13.2,13.2,0,0,1-1.2-5.8,13,13,0,0,1,1.3-5.9,10.1,10.1,0,0,1,7.5-5.5h2.4a11.7,11.7,0,0,1,8.3,4.2l5.5-9.6a19.9,19.9,0,0,0-8.1-4.3,23.4,23.4,0,0,0-6.1-.8,25.2,25.2,0,0,0-7.5,1.1,20.9,20.9,0,0,0-8,4.6,21.9,21.9,0,0,0-6.8,16.4,21.9,21.9,0,0,0,6.7,16.3,20.9,20.9,0,0,0,8,4.6,25.2,25.2,0,0,0,7.7,1.2,23.6,23.6,0,0,0,6.2-.8,20,20,0,0,0,8.1-4.4Z" style="fill:#0e2a47"/><path d="M46.3,26.5H26.9L20.8,16H52.4L61.6,0H9.4A9.3,9.3,0,0,0,1.3,4.7a9.3,9.3,0,0,0,0,9.4L34.6,71.8a9.4,9.4,0,0,0,16.2,0l1.1-1.9L36.6,43.3Z" style="fill:#4ad295"/><path d="M84.2,4.7A9.3,9.3,0,0,0,76.1,0H73.8l-25,43.3,9.2,16L84.2,14A9.3,9.3,0,0,0,84.2,4.7Z" style="fill:#4ad295"/></svg>