<svg width="280" height="40" xmlns="http://www.w3.org/2000/svg"><g fill="#919eab" fill-rule="evenodd"><path d="M6.488 10.01A16.55 16.55 0 0 0 3.97 13.4l-1.064-.555a1.396 1.396 0 0 0-1.505-1.086c-.752.08-1.297.794-1.193 1.562a1.363 1.363 0 0 0 1.53 1.219c.156-.027.286-.053.416-.133l1.038.556a16.948 16.948 0 0 0-1.22 4.052l1.713.318c.519-3.045 1.946-5.826 4.074-8.077L6.488 10.01zM18.996 4.661c-.39 0-.778.027-1.168.027l-.155-1.457c.415-.344.674-.9.596-1.51A1.626 1.626 0 0 0 16.453.265c-.908.106-1.531.927-1.427 1.854.077.582.44 1.086.934 1.297l.156 1.457a16.532 16.532 0 0 0-4.698 1.51l.753 1.589a15.547 15.547 0 0 1 6.825-1.563c1.142 0 2.258.133 3.374.37l.363-1.72a17.56 17.56 0 0 0-3.737-.398zM34.048 10.567a1.394 1.394 0 0 0 1.193-1.562c-.103-.769-.778-1.325-1.53-1.219-.701.08-1.22.715-1.22 1.404l-.96.847a17.476 17.476 0 0 0-3.219-2.648l-.908 1.483a15.66 15.66 0 0 1 5.84 6.806l1.582-.715a17.324 17.324 0 0 0-2.154-3.601l.908-.821a.95.95 0 0 0 .468.026zM17.75 28.39c-.882.054-1.764.08-2.647.08-1.998 0-3.944-.132-5.657-.424-.882-.132-1.92-.37-2.906-.688 2.387 4.317 7.006 7.256 12.274 7.256 6.514 0 11.99-4.449 13.573-10.487-1.557 1.033-3.426 1.907-5.606 2.622-2.647.9-5.787 1.456-9.03 1.642z"/><path d="M18.996 8.184c-7.63 0-13.858 6.197-13.858 13.824 0 .98.104 1.986.312 2.94 1.53 1.112 6.176 2.066 12.197 1.695 6.565-.397 12.067-2.225 15.207-5.032 0-.45-.052-.9-.104-1.35-.856-6.887-6.773-12.077-13.754-12.077zm-4.905 15.148c-2.335 0-4.204-1.933-4.204-4.29 0-2.384 1.895-4.29 4.204-4.29 2.336 0 4.204 1.933 4.204 4.29s-1.894 4.29-4.204 4.29zm10.796-2.118c-1.713 0-3.088-1.43-3.088-3.152 0-1.748 1.401-3.152 3.088-3.152 1.713 0 3.088 1.43 3.088 3.152 0 1.748-1.375 3.152-3.088 3.152z" fill-rule="nonzero"/><g><path d="M161.183 18.49l-1.623 1.73c-1.204-1.198-2.643-1.89-4.37-1.89-3.22 0-5.654 2.555-5.654 6.069 0 3.54 2.434 6.068 5.653 6.068 1.754 0 3.298-.798 4.424-1.916l1.57 1.757c-1.466 1.676-3.56 2.555-5.941 2.555-4.921 0-8.298-3.647-8.298-8.491 0-4.818 3.377-8.464 8.298-8.464 2.355.026 4.502.931 5.941 2.582z"/><path d="M179.008 24.399c0 4.844-3.612 8.49-8.454 8.49-4.843 0-8.429-3.646-8.429-8.49 0-4.818 3.613-8.465 8.429-8.465 4.816 0 8.454 3.647 8.454 8.465zm-14.291 0c0 3.54 2.512 6.068 5.863 6.068 3.324 0 5.863-2.555 5.863-6.068 0-3.514-2.54-6.07-5.863-6.07-3.35.028-5.863 2.556-5.863 6.07z" fill-rule="nonzero"/><path d="M207.695 22.456V32.57h-2.513v-9.263c0-3.087-1.701-4.924-4.633-4.924-2.696 0-4.92 1.89-4.92 5.004v9.183h-2.513v-9.263c0-3.087-1.702-4.924-4.633-4.924-2.696 0-4.92 1.89-4.92 5.004v9.183h-2.54V16.254h2.513v2.315c1.309-1.943 3.429-2.661 5.392-2.661 2.8 0 4.973 1.304 6.02 3.433 1.283-2.528 3.795-3.433 6.046-3.433 3.979.026 6.7 2.608 6.7 6.548z"/><path d="M226.802 24.399c0 4.897-3.507 8.49-8.01 8.49-2.643 0-4.58-1.09-5.836-2.741v9.29h-2.539V16.253h2.539v2.422c1.256-1.65 3.193-2.742 5.837-2.742 4.502 0 8.009 3.594 8.009 8.465zm-14.003 0c0 3.46 2.355 6.068 5.706 6.068 3.429 0 5.732-2.715 5.732-6.068 0-3.354-2.33-6.07-5.732-6.07-3.35.028-5.706 2.636-5.706 6.07zM244.836 32.57h-2.513v-2.422c-1.282 1.677-3.22 2.741-5.863 2.741-4.502 0-8.009-3.593-8.009-8.49 0-4.898 3.507-8.465 8.01-8.465 2.643 0 4.58 1.092 5.862 2.742v-2.422h2.513V32.57zm-13.82-8.171c0 3.38 2.33 6.068 5.732 6.068 3.324 0 5.706-2.608 5.706-6.068 0-3.434-2.355-6.042-5.706-6.042-3.429 0-5.732 2.688-5.732 6.042z" fill-rule="nonzero"/><path d="M262.347 22.456V32.57h-2.513v-9.263c0-3.087-1.701-4.924-4.633-4.924-2.696 0-4.92 1.89-4.92 5.004v9.183h-2.54V16.254h2.513v2.315c1.309-1.943 3.429-2.661 5.392-2.661 3.979.026 6.7 2.608 6.7 6.548zM266.692 39.517h-2.801l5.968-10.487-7.355-12.776h2.827l5.967 10.22 5.654-10.22h2.774z"/></g><g><path d="M56.245 12.267c-.679-.264-1.854-.713-3.16-.555-1.253.159-1.932.792-1.932 2.324v2.007h5.118v3.987h-5.118V32.68h-4.44V20.03h-3.081v-3.987h3.081v-2.06c0-3.908 2.063-6.443 5.902-6.443 1.463 0 2.664.29 3.656.713l-.026 4.014zM67.031 19.977a6.338 6.338 0 0 0-1.201-.105c-2.063 0-3.474 1.267-3.474 3.75v9.057h-4.44V16.043H62.2v1.822c1.044-1.558 2.611-2.271 4.622-2.271.94 0 1.933.29 2.507.792l-2.298 3.591z"/><path d="M84.607 24.334c0 .502-.026 1.136-.079 1.506H72.855c.47 2.403 2.141 3.459 4.23 3.459 1.437 0 2.978-.581 4.153-1.585l2.585 2.879c-1.88 1.743-4.257 2.535-6.999 2.535-5.04 0-8.54-3.46-8.54-8.714 0-5.229 3.396-8.794 8.331-8.794 4.727-.026 7.992 3.539 7.992 8.714zM72.88 22.803h7.286c-.418-2.139-1.671-3.327-3.578-3.327-2.089 0-3.316 1.267-3.708 3.327zM102.156 24.334c0 .502-.026 1.136-.078 1.506H90.404c.47 2.403 2.142 3.459 4.231 3.459 1.436 0 2.977-.581 4.152-1.585l2.586 2.879c-1.88 1.743-4.257 2.535-7 2.535-5.04 0-8.539-3.46-8.539-8.714 0-5.229 3.395-8.794 8.331-8.794 4.753-.026 7.991 3.539 7.991 8.714zM90.43 22.803h7.287c-.418-2.139-1.672-3.327-3.578-3.327-2.09 0-3.317 1.267-3.709 3.327zM121.299 24.36c0 4.992-3.421 8.768-7.965 8.768-2.22 0-3.76-.872-4.832-2.166v8.609h-4.413V16.069h4.335v1.849c1.07-1.347 2.638-2.271 4.91-2.271 4.544-.053 7.965 3.723 7.965 8.714zm-13.006 0c0 2.615 1.724 4.596 4.231 4.596 2.612 0 4.257-2.034 4.257-4.595 0-2.562-1.62-4.595-4.257-4.595-2.533 0-4.23 1.98-4.23 4.595zM128.428 10.603c0 1.611-1.227 2.852-2.846 2.852-1.593 0-2.82-1.241-2.82-2.852 0-1.61 1.227-2.878 2.82-2.878 1.593 0 2.846 1.267 2.846 2.878zm-.6 22.076h-4.44V16.043h4.44v16.636z" fill-rule="nonzero"/><path d="M135.219 21.984l6.215-5.941h5.432l-7.991 7.816 8.017 8.793h-5.458l-6.242-6.733v6.733h-4.44V7.962h4.44v14.022z"/></g></g></svg>